<mxfile host="app.diagrams.net" modified="2024-04-29T13:11:39.214Z" agent="Mozilla/5.0 (Windows NT 10.0; Win64; x64) AppleWebKit/537.36 (KHTML, like Gecko) Chrome/124.0.0.0 Safari/537.36 Edg/124.0.0.0" etag="bPIyzaNIqPygeIrONY2y" version="24.3.1" type="device">
  <diagram name="Page-1" id="jRh3g9O0sv6gsrA3eOK4">
    <mxGraphModel dx="458" dy="534" grid="1" gridSize="10" guides="1" tooltips="1" connect="1" arrows="1" fold="1" page="1" pageScale="1" pageWidth="850" pageHeight="1100" math="0" shadow="0">
      <root>
        <mxCell id="0" />
        <mxCell id="1" parent="0" />
        <mxCell id="tFVcKyLoC8tt9AktipYF-1" value="App" style="rounded=0;whiteSpace=wrap;html=1;" vertex="1" parent="1">
          <mxGeometry x="365" y="20" width="65" height="20" as="geometry" />
        </mxCell>
        <mxCell id="tFVcKyLoC8tt9AktipYF-13" style="edgeStyle=orthogonalEdgeStyle;rounded=0;orthogonalLoop=1;jettySize=auto;html=1;entryX=0.5;entryY=0;entryDx=0;entryDy=0;" edge="1" parent="1" source="tFVcKyLoC8tt9AktipYF-2" target="tFVcKyLoC8tt9AktipYF-11">
          <mxGeometry relative="1" as="geometry" />
        </mxCell>
        <mxCell id="tFVcKyLoC8tt9AktipYF-14" style="edgeStyle=orthogonalEdgeStyle;rounded=0;orthogonalLoop=1;jettySize=auto;html=1;" edge="1" parent="1" source="tFVcKyLoC8tt9AktipYF-2" target="tFVcKyLoC8tt9AktipYF-12">
          <mxGeometry relative="1" as="geometry" />
        </mxCell>
        <mxCell id="tFVcKyLoC8tt9AktipYF-2" value="ItemsList" style="rounded=0;whiteSpace=wrap;html=1;" vertex="1" parent="1">
          <mxGeometry x="260" y="90" width="65" height="20" as="geometry" />
        </mxCell>
        <mxCell id="tFVcKyLoC8tt9AktipYF-3" value="CardList" style="rounded=0;whiteSpace=wrap;html=1;" vertex="1" parent="1">
          <mxGeometry x="480" y="150" width="65" height="20" as="geometry" />
        </mxCell>
        <mxCell id="tFVcKyLoC8tt9AktipYF-9" style="edgeStyle=orthogonalEdgeStyle;rounded=0;orthogonalLoop=1;jettySize=auto;html=1;entryX=0.5;entryY=0;entryDx=0;entryDy=0;exitX=0.5;exitY=1;exitDx=0;exitDy=0;" edge="1" parent="1" source="tFVcKyLoC8tt9AktipYF-4" target="tFVcKyLoC8tt9AktipYF-3">
          <mxGeometry relative="1" as="geometry">
            <Array as="points">
              <mxPoint x="462" y="130" />
              <mxPoint x="512" y="130" />
            </Array>
          </mxGeometry>
        </mxCell>
        <mxCell id="tFVcKyLoC8tt9AktipYF-4" value="Card" style="rounded=0;whiteSpace=wrap;html=1;" vertex="1" parent="1">
          <mxGeometry x="430" y="90" width="65" height="20" as="geometry" />
        </mxCell>
        <mxCell id="tFVcKyLoC8tt9AktipYF-5" value="Total" style="rounded=0;whiteSpace=wrap;html=1;" vertex="1" parent="1">
          <mxGeometry x="393" y="150" width="65" height="20" as="geometry" />
        </mxCell>
        <mxCell id="tFVcKyLoC8tt9AktipYF-7" style="edgeStyle=orthogonalEdgeStyle;rounded=0;orthogonalLoop=1;jettySize=auto;html=1;entryX=0.462;entryY=0;entryDx=0;entryDy=0;entryPerimeter=0;" edge="1" parent="1" source="tFVcKyLoC8tt9AktipYF-1" target="tFVcKyLoC8tt9AktipYF-4">
          <mxGeometry relative="1" as="geometry">
            <Array as="points">
              <mxPoint x="400" y="60" />
              <mxPoint x="460" y="60" />
            </Array>
          </mxGeometry>
        </mxCell>
        <mxCell id="tFVcKyLoC8tt9AktipYF-8" style="edgeStyle=orthogonalEdgeStyle;rounded=0;orthogonalLoop=1;jettySize=auto;html=1;entryX=0.615;entryY=0;entryDx=0;entryDy=0;entryPerimeter=0;" edge="1" parent="1" source="tFVcKyLoC8tt9AktipYF-1" target="tFVcKyLoC8tt9AktipYF-2">
          <mxGeometry relative="1" as="geometry">
            <Array as="points">
              <mxPoint x="400" y="60" />
              <mxPoint x="300" y="60" />
            </Array>
          </mxGeometry>
        </mxCell>
        <mxCell id="tFVcKyLoC8tt9AktipYF-10" style="edgeStyle=orthogonalEdgeStyle;rounded=0;orthogonalLoop=1;jettySize=auto;html=1;entryX=0.529;entryY=0.014;entryDx=0;entryDy=0;entryPerimeter=0;" edge="1" parent="1" source="tFVcKyLoC8tt9AktipYF-4" target="tFVcKyLoC8tt9AktipYF-5">
          <mxGeometry relative="1" as="geometry">
            <mxPoint x="427" y="140" as="targetPoint" />
          </mxGeometry>
        </mxCell>
        <mxCell id="tFVcKyLoC8tt9AktipYF-11" value="ftuit" style="rounded=0;whiteSpace=wrap;html=1;" vertex="1" parent="1">
          <mxGeometry x="210" y="160" width="65" height="20" as="geometry" />
        </mxCell>
        <mxCell id="tFVcKyLoC8tt9AktipYF-12" value="vegetable" style="rounded=0;whiteSpace=wrap;html=1;" vertex="1" parent="1">
          <mxGeometry x="300" y="160" width="65" height="20" as="geometry" />
        </mxCell>
        <mxCell id="tFVcKyLoC8tt9AktipYF-15" value="Product in app&lt;div&gt;&amp;nbsp;itemsList -&amp;gt; fruit&amp;nbsp;&lt;/div&gt;&lt;div&gt;&amp;nbsp;itemsList -&amp;gt; vegetable&lt;br&gt;&lt;/div&gt;&lt;div&gt;Card -&amp;gt; CardList&lt;/div&gt;&lt;div&gt;&lt;br&gt;&lt;/div&gt;" style="text;html=1;align=center;verticalAlign=middle;resizable=0;points=[];autosize=1;strokeColor=none;fillColor=none;" vertex="1" parent="1">
          <mxGeometry x="150" y="230" width="140" height="90" as="geometry" />
        </mxCell>
        <mxCell id="tFVcKyLoC8tt9AktipYF-17" value="items in Card&lt;div&gt;Total&lt;/div&gt;&lt;div&gt;Card List&lt;/div&gt;" style="text;html=1;align=center;verticalAlign=middle;resizable=0;points=[];autosize=1;strokeColor=none;fillColor=none;" vertex="1" parent="1">
          <mxGeometry x="365" y="230" width="90" height="60" as="geometry" />
        </mxCell>
      </root>
    </mxGraphModel>
  </diagram>
</mxfile>
